<svg width="149" height="129" viewBox="0 0 149 129" fill="none" xmlns="http://www.w3.org/2000/svg">
<path d="M41.2128 75.475C39.5717 75.475 37.9977 74.8223 36.8372 73.6605C35.6768 72.4987 35.0248 70.923 35.0248 69.28C35.0248 67.637 35.6768 66.0613 36.8372 64.8995C37.9977 63.7377 39.5717 63.085 41.2128 63.085H6.73683C5.09567 63.085 3.52173 62.4323 2.36125 61.2705C1.20078 60.1087 0.548828 58.533 0.548828 56.89C0.548828 55.247 1.20078 53.6713 2.36125 52.5095C3.52173 51.3477 5.09567 50.695 6.73683 50.695H42.0968C43.738 50.695 45.3119 50.0423 46.4724 48.8805C47.6329 47.7187 48.2848 46.143 48.2848 44.5C48.2848 42.857 47.6329 41.2813 46.4724 40.1195C45.3119 38.9577 43.738 38.305 42.0968 38.305H19.9968C18.3557 38.305 16.7817 37.6523 15.6213 36.4905C14.4608 35.3287 13.8088 33.753 13.8088 32.11C13.8088 30.467 14.4608 28.8913 15.6213 27.7295C16.7817 26.5677 18.3557 25.915 19.9968 25.915H55.3568C53.7157 25.915 52.1417 25.2623 50.9812 24.1005C49.8208 22.9387 49.1688 21.363 49.1688 19.72C49.1688 18.077 49.8208 16.5013 50.9812 15.3395C52.1417 14.1777 53.7157 13.525 55.3568 13.525H141.989C143.63 13.525 145.204 14.1777 146.364 15.3395C147.525 16.5013 148.177 18.077 148.177 19.72C148.177 21.363 147.525 22.9387 146.364 24.1005C145.204 25.2623 143.63 25.915 141.989 25.915H106.629C108.27 25.915 109.844 26.5677 111.004 27.7295C112.165 28.8913 112.817 30.467 112.817 32.11C112.817 33.753 112.165 35.3287 111.004 36.4905C109.844 37.6523 108.27 38.305 106.629 38.305H126.077C127.718 38.305 129.292 38.9577 130.452 40.1195C131.613 41.2813 132.265 42.857 132.265 44.5C132.265 46.143 131.613 47.7187 130.452 48.8805C129.292 50.0423 127.718 50.695 126.077 50.695H117.083C112.774 50.695 109.281 53.4686 109.281 56.89C109.281 60.3114 114.585 63.085 114.585 63.085C116.226 63.085 117.8 63.7377 118.96 64.8995C120.121 66.0613 120.773 67.637 120.773 69.28C120.773 70.923 120.121 72.4987 118.96 73.6605C117.8 74.8223 116.226 75.475 114.585 75.475H41.2128ZM135.801 44.5C135.801 43.2747 136.164 42.077 136.844 41.0582C137.524 40.0395 138.49 39.2454 139.621 38.7766C140.751 38.3077 141.996 38.185 143.196 38.424C144.396 38.6631 145.499 39.2531 146.364 40.1195C147.23 40.9859 147.819 42.0897 148.058 43.2914C148.297 44.4931 148.174 45.7387 147.706 46.8707C147.237 48.0027 146.444 48.9702 145.427 49.6509C144.409 50.3317 143.213 50.695 141.989 50.695C140.348 50.695 138.774 50.0423 137.613 48.8805C136.453 47.7187 135.801 46.143 135.801 44.5Z" fill="#F1F3F9"/>
<path d="M100.729 82.6498L48.9619 89.0132C48.0311 89.1276 47.093 88.8671 46.354 88.2891C45.615 87.7111 45.1356 86.8628 45.0213 85.931L37.0514 20.9476C36.9943 20.4816 37.1243 20.0121 37.413 19.6421C37.7017 19.2722 38.1254 19.0323 38.5908 18.9751L38.6092 18.9728L42.9035 18.4904L46.3762 18.0992L48.8696 17.8203L94.8468 12.6403L103.069 72.6815L103.808 78.7047C103.922 79.6366 103.662 80.5758 103.085 81.3156C102.507 82.0554 101.66 82.5353 100.729 82.6498Z" fill="white" stroke="#ABB4C6" stroke-width="2.5" stroke-miterlimit="10" stroke-linecap="round"/>
<path d="M92.6065 16.4186L100.05 70.8312L100.719 76.2905C100.773 76.7059 100.744 77.1279 100.635 77.5323C100.526 77.9367 100.338 78.3156 100.083 78.6472C99.8269 78.9789 99.5085 79.2568 99.1454 79.4651C98.7823 79.6733 98.3818 79.8079 97.9667 79.861L51.6079 85.5596C51.1923 85.6086 50.7711 85.5751 50.3685 85.4609C49.9659 85.3467 49.5897 85.1542 49.2615 84.8943C48.9333 84.6344 48.6596 84.3123 48.4559 83.9464C48.2522 83.5804 48.1226 83.1779 48.0744 82.7617L40.8698 24.0185C40.8127 23.5526 40.9428 23.083 41.2315 22.7131C41.5201 22.3432 41.9438 22.1032 42.4092 22.046L48.144 21.3411" fill="#F1F3F9"/>
<path d="M108.991 73.4838H56.8353C55.4948 73.4838 54.4043 72.392 54.4043 71.05V3.79001C54.4043 2.44804 55.4948 1.35626 56.8353 1.35626H97.1075C97.7565 1.35626 98.3668 1.60923 98.8259 2.06856L110.71 13.9585C111.169 14.4182 111.422 15.0296 111.422 15.6799V71.05C111.422 72.392 110.332 73.4838 108.991 73.4838Z" fill="white"/>
<path d="M56.8348 2.4625C56.1037 2.4625 55.5088 3.05801 55.5088 3.79V71.05C55.5088 71.782 56.1037 72.3775 56.8348 72.3775H108.991C109.722 72.3775 110.317 71.782 110.317 71.05V15.6799C110.317 15.3252 110.179 14.9917 109.928 14.7409L98.0443 2.85103C97.7939 2.60048 97.461 2.4625 97.107 2.4625H56.8348ZM56.8348 0.25H97.107C98.0444 0.25 98.9435 0.622657 99.6066 1.28607L111.49 13.176C112.154 13.8399 112.527 14.7407 112.527 15.6799V71.05C112.527 73.0051 110.944 74.59 108.991 74.59H56.8348C54.882 74.59 53.2988 73.0051 53.2988 71.05V3.79C53.2988 1.83491 54.882 0.25 56.8348 0.25Z" fill="#ABB4C6"/>
<path d="M97.498 2.37665V12.6426C97.498 13.3468 97.7775 14.0221 98.2748 14.52C98.7721 15.0179 99.4467 15.2976 100.15 15.2976H107.164" stroke="#ABB4C6" stroke-width="2.5" stroke-miterlimit="10" stroke-linecap="round" stroke-linejoin="round"/>
<rect x="63" y="18" width="29" height="3" fill="#F1F3F9"/>
<rect x="63" y="28" width="38" height="3" fill="#F1F3F9"/>
<rect x="63" y="38" width="38" height="3" fill="#F1F3F9"/>
<rect x="63" y="48" width="38" height="3" fill="#F1F3F9"/>
<rect x="63" y="58" width="38" height="3" fill="#F1F3F9"/>
<path d="M58.127 115.969V126H57.448C57.3407 126 57.2497 125.981 57.175 125.944C57.105 125.907 57.035 125.844 56.965 125.755L51.162 118.195C51.1713 118.312 51.1783 118.426 51.183 118.538C51.1877 118.65 51.19 118.755 51.19 118.853V126H50V115.969H50.7C50.7607 115.969 50.812 115.974 50.854 115.983C50.896 115.988 50.9333 115.999 50.966 116.018C50.9987 116.032 51.0313 116.055 51.064 116.088C51.0967 116.116 51.1317 116.153 51.169 116.2L56.972 123.753C56.9627 123.632 56.9533 123.515 56.944 123.403C56.9393 123.286 56.937 123.177 56.937 123.074V115.969H58.127ZM63.1677 118.797C63.6857 118.797 64.1523 118.883 64.5677 119.056C64.983 119.229 65.3377 119.474 65.6317 119.791C65.9257 120.108 66.1497 120.493 66.3037 120.946C66.4623 121.394 66.5417 121.896 66.5417 122.451C66.5417 123.011 66.4623 123.515 66.3037 123.963C66.1497 124.411 65.9257 124.794 65.6317 125.111C65.3377 125.428 64.983 125.673 64.5677 125.846C64.1523 126.014 63.6857 126.098 63.1677 126.098C62.645 126.098 62.1737 126.014 61.7537 125.846C61.3383 125.673 60.9837 125.428 60.6897 125.111C60.3957 124.794 60.1693 124.411 60.0107 123.963C59.8567 123.515 59.7797 123.011 59.7797 122.451C59.7797 121.896 59.8567 121.394 60.0107 120.946C60.1693 120.493 60.3957 120.108 60.6897 119.791C60.9837 119.474 61.3383 119.229 61.7537 119.056C62.1737 118.883 62.645 118.797 63.1677 118.797ZM63.1677 125.125C63.8677 125.125 64.3903 124.892 64.7357 124.425C65.081 123.954 65.2537 123.298 65.2537 122.458C65.2537 121.613 65.081 120.955 64.7357 120.484C64.3903 120.013 63.8677 119.777 63.1677 119.777C62.813 119.777 62.5027 119.838 62.2367 119.959C61.9753 120.08 61.756 120.255 61.5787 120.484C61.406 120.713 61.2753 120.995 61.1867 121.331C61.1027 121.662 61.0607 122.038 61.0607 122.458C61.0607 123.298 61.2333 123.954 61.5787 124.425C61.9287 124.892 62.4583 125.125 63.1677 125.125ZM80.692 120.988C80.692 121.739 80.573 122.423 80.335 123.039C80.097 123.655 79.761 124.182 79.327 124.621C78.893 125.06 78.3704 125.4 77.759 125.643C77.1524 125.881 76.4804 126 75.743 126H71.998V115.969H75.743C76.4804 115.969 77.1524 116.09 77.759 116.333C78.3704 116.571 78.893 116.912 79.327 117.355C79.761 117.794 80.097 118.321 80.335 118.937C80.573 119.553 80.692 120.237 80.692 120.988ZM79.299 120.988C79.299 120.372 79.215 119.821 79.047 119.336C78.879 118.851 78.641 118.44 78.333 118.104C78.025 117.768 77.6517 117.511 77.213 117.334C76.7744 117.157 76.2844 117.068 75.743 117.068H73.356V124.901H75.743C76.2844 124.901 76.7744 124.812 77.213 124.635C77.6517 124.458 78.025 124.203 78.333 123.872C78.641 123.536 78.879 123.125 79.047 122.64C79.215 122.155 79.299 121.604 79.299 120.988ZM86.0197 122.808C85.4457 122.827 84.9557 122.873 84.5497 122.948C84.1484 123.018 83.8194 123.111 83.5627 123.228C83.3107 123.345 83.1264 123.482 83.0097 123.641C82.8977 123.8 82.8417 123.977 82.8417 124.173C82.8417 124.36 82.872 124.521 82.9327 124.656C82.9934 124.791 83.075 124.903 83.1777 124.992C83.285 125.076 83.4087 125.139 83.5487 125.181C83.6934 125.218 83.8474 125.237 84.0107 125.237C84.23 125.237 84.4307 125.216 84.6127 125.174C84.7947 125.127 84.965 125.062 85.1237 124.978C85.287 124.894 85.441 124.794 85.5857 124.677C85.735 124.56 85.8797 124.427 86.0197 124.278V122.808ZM81.9947 119.91C82.3867 119.532 82.809 119.25 83.2617 119.063C83.7144 118.876 84.216 118.783 84.7667 118.783C85.1634 118.783 85.5157 118.848 85.8237 118.979C86.1317 119.11 86.3907 119.292 86.6007 119.525C86.8107 119.758 86.9694 120.041 87.0767 120.372C87.184 120.703 87.2377 121.067 87.2377 121.464V126H86.6847C86.5634 126 86.47 125.981 86.4047 125.944C86.3394 125.902 86.288 125.823 86.2507 125.706L86.1107 125.034C85.924 125.207 85.742 125.361 85.5647 125.496C85.3874 125.627 85.2007 125.739 85.0047 125.832C84.8087 125.921 84.5987 125.988 84.3747 126.035C84.1554 126.086 83.9104 126.112 83.6397 126.112C83.3644 126.112 83.1054 126.075 82.8627 126C82.62 125.921 82.4077 125.804 82.2257 125.65C82.0484 125.496 81.906 125.302 81.7987 125.069C81.696 124.831 81.6447 124.551 81.6447 124.229C81.6447 123.949 81.7217 123.681 81.8757 123.424C82.0297 123.163 82.2794 122.932 82.6247 122.731C82.97 122.53 83.4204 122.367 83.9757 122.241C84.531 122.11 85.2124 122.036 86.0197 122.017V121.464C86.0197 120.913 85.9007 120.498 85.6627 120.218C85.4247 119.933 85.077 119.791 84.6197 119.791C84.3117 119.791 84.0527 119.831 83.8427 119.91C83.6374 119.985 83.4577 120.071 83.3037 120.169C83.1544 120.262 83.0237 120.349 82.9117 120.428C82.8044 120.503 82.697 120.54 82.5897 120.54C82.5057 120.54 82.4334 120.519 82.3727 120.477C82.312 120.43 82.2607 120.374 82.2187 120.309L81.9947 119.91ZM91.217 126.112C90.657 126.112 90.2253 125.956 89.922 125.643C89.6233 125.33 89.474 124.88 89.474 124.292V119.952H88.62C88.5453 119.952 88.4823 119.931 88.431 119.889C88.3797 119.842 88.354 119.772 88.354 119.679V119.182L89.516 119.035L89.803 116.844C89.817 116.774 89.8473 116.718 89.894 116.676C89.9453 116.629 90.0107 116.606 90.09 116.606H90.72V119.049H92.771V119.952H90.72V124.208C90.72 124.507 90.7923 124.728 90.937 124.873C91.0817 125.018 91.2683 125.09 91.497 125.09C91.6277 125.09 91.7397 125.074 91.833 125.041C91.931 125.004 92.015 124.964 92.085 124.922C92.155 124.88 92.2133 124.843 92.26 124.81C92.3113 124.773 92.3557 124.754 92.393 124.754C92.4583 124.754 92.5167 124.794 92.568 124.873L92.932 125.468C92.7173 125.669 92.4583 125.827 92.155 125.944C91.8517 126.056 91.539 126.112 91.217 126.112ZM97.9006 122.808C97.3266 122.827 96.8366 122.873 96.4306 122.948C96.0292 123.018 95.7002 123.111 95.4436 123.228C95.1916 123.345 95.0072 123.482 94.8906 123.641C94.7786 123.8 94.7226 123.977 94.7226 124.173C94.7226 124.36 94.7529 124.521 94.8136 124.656C94.8742 124.791 94.9559 124.903 95.0586 124.992C95.1659 125.076 95.2896 125.139 95.4296 125.181C95.5742 125.218 95.7282 125.237 95.8916 125.237C96.1109 125.237 96.3116 125.216 96.4936 125.174C96.6756 125.127 96.8459 125.062 97.0046 124.978C97.1679 124.894 97.3219 124.794 97.4666 124.677C97.6159 124.56 97.7606 124.427 97.9006 124.278V122.808ZM93.8756 119.91C94.2676 119.532 94.6899 119.25 95.1426 119.063C95.5952 118.876 96.0969 118.783 96.6476 118.783C97.0442 118.783 97.3966 118.848 97.7046 118.979C98.0126 119.11 98.2716 119.292 98.4816 119.525C98.6916 119.758 98.8502 120.041 98.9576 120.372C99.0649 120.703 99.1186 121.067 99.1186 121.464V126H98.5656C98.4442 126 98.3509 125.981 98.2856 125.944C98.2202 125.902 98.1689 125.823 98.1316 125.706L97.9916 125.034C97.8049 125.207 97.6229 125.361 97.4456 125.496C97.2682 125.627 97.0816 125.739 96.8856 125.832C96.6896 125.921 96.4796 125.988 96.2556 126.035C96.0362 126.086 95.7912 126.112 95.5206 126.112C95.2452 126.112 94.9862 126.075 94.7436 126C94.5009 125.921 94.2886 125.804 94.1066 125.65C93.9292 125.496 93.7869 125.302 93.6796 125.069C93.5769 124.831 93.5256 124.551 93.5256 124.229C93.5256 123.949 93.6026 123.681 93.7566 123.424C93.9106 123.163 94.1602 122.932 94.5056 122.731C94.8509 122.53 95.3012 122.367 95.8566 122.241C96.4119 122.11 97.0932 122.036 97.9006 122.017V121.464C97.9006 120.913 97.7816 120.498 97.5436 120.218C97.3056 119.933 96.9579 119.791 96.5006 119.791C96.1926 119.791 95.9336 119.831 95.7236 119.91C95.5182 119.985 95.3386 120.071 95.1846 120.169C95.0352 120.262 94.9046 120.349 94.7926 120.428C94.6852 120.503 94.5779 120.54 94.4706 120.54C94.3866 120.54 94.3142 120.519 94.2536 120.477C94.1929 120.43 94.1416 120.374 94.0996 120.309L93.8756 119.91Z" fill="#646464"/>
</svg>
